<mxfile host="app.diagrams.net" agent="Mozilla/5.0 (Windows NT 10.0; Win64; x64) AppleWebKit/537.36 (KHTML, like Gecko) Chrome/141.0.0.0 Safari/537.36" version="28.2.4">
  <diagram name="Pagina-1" id="lCoKvGngKFcb7wK1glGA">
    <mxGraphModel dx="1503" dy="1509" grid="1" gridSize="10" guides="1" tooltips="1" connect="1" arrows="1" fold="1" page="1" pageScale="1" pageWidth="827" pageHeight="1169" math="0" shadow="0">
      <root>
        <mxCell id="0" />
        <mxCell id="1" parent="0" />
        <mxCell id="uvnTKlnBVqPeH02RUgd2-5" value="" style="ellipse;whiteSpace=wrap;html=1;aspect=fixed;" vertex="1" parent="1">
          <mxGeometry x="NaN" y="NaN" width="NaN" height="10" as="geometry" />
        </mxCell>
        <mxCell id="uvnTKlnBVqPeH02RUgd2-20" value="UTENTE" style="rounded=0;whiteSpace=wrap;html=1;" vertex="1" parent="1">
          <mxGeometry x="390" y="350" width="120" height="60" as="geometry" />
        </mxCell>
        <mxCell id="uvnTKlnBVqPeH02RUgd2-22" value="" style="endArrow=none;html=1;rounded=0;entryX=0.25;entryY=1;entryDx=0;entryDy=0;exitX=1;exitY=0;exitDx=0;exitDy=0;" edge="1" parent="1" source="uvnTKlnBVqPeH02RUgd2-23" target="uvnTKlnBVqPeH02RUgd2-20">
          <mxGeometry width="50" height="50" relative="1" as="geometry">
            <mxPoint x="400" y="440" as="sourcePoint" />
            <mxPoint x="420" y="430" as="targetPoint" />
          </mxGeometry>
        </mxCell>
        <mxCell id="uvnTKlnBVqPeH02RUgd2-28" value="Password" style="edgeLabel;html=1;align=center;verticalAlign=middle;resizable=0;points=[];" vertex="1" connectable="0" parent="uvnTKlnBVqPeH02RUgd2-22">
          <mxGeometry x="-0.6909" y="-2" relative="1" as="geometry">
            <mxPoint x="-13" y="22" as="offset" />
          </mxGeometry>
        </mxCell>
        <mxCell id="uvnTKlnBVqPeH02RUgd2-23" value="" style="ellipse;whiteSpace=wrap;html=1;aspect=fixed;" vertex="1" parent="1">
          <mxGeometry x="380" y="440" width="10" height="10" as="geometry" />
        </mxCell>
        <mxCell id="uvnTKlnBVqPeH02RUgd2-29" value="" style="endArrow=none;html=1;rounded=0;entryX=0.5;entryY=1;entryDx=0;entryDy=0;" edge="1" parent="1">
          <mxGeometry width="50" height="50" relative="1" as="geometry">
            <mxPoint x="450" y="440" as="sourcePoint" />
            <mxPoint x="450" y="410" as="targetPoint" />
          </mxGeometry>
        </mxCell>
        <mxCell id="uvnTKlnBVqPeH02RUgd2-30" value="E-mail" style="edgeLabel;html=1;align=center;verticalAlign=middle;resizable=0;points=[];" vertex="1" connectable="0" parent="uvnTKlnBVqPeH02RUgd2-29">
          <mxGeometry x="-0.6909" y="-2" relative="1" as="geometry">
            <mxPoint x="-2" y="25" as="offset" />
          </mxGeometry>
        </mxCell>
        <mxCell id="uvnTKlnBVqPeH02RUgd2-35" value="" style="ellipse;whiteSpace=wrap;html=1;aspect=fixed;fillColor=#000000;" vertex="1" parent="1">
          <mxGeometry x="445" y="440" width="10" height="10" as="geometry" />
        </mxCell>
        <mxCell id="uvnTKlnBVqPeH02RUgd2-47" value="CLIENTE" style="rounded=0;whiteSpace=wrap;html=1;" vertex="1" parent="1">
          <mxGeometry x="90" y="190" width="120" height="60" as="geometry" />
        </mxCell>
        <mxCell id="uvnTKlnBVqPeH02RUgd2-48" value="MANAGER" style="rounded=0;whiteSpace=wrap;html=1;" vertex="1" parent="1">
          <mxGeometry x="520" y="190" width="120" height="60" as="geometry" />
        </mxCell>
        <mxCell id="uvnTKlnBVqPeH02RUgd2-51" value="" style="endArrow=none;html=1;rounded=0;exitX=0.5;exitY=0;exitDx=0;exitDy=0;" edge="1" parent="1" source="uvnTKlnBVqPeH02RUgd2-20">
          <mxGeometry width="50" height="50" relative="1" as="geometry">
            <mxPoint x="460" y="340" as="sourcePoint" />
            <mxPoint x="450" y="300" as="targetPoint" />
          </mxGeometry>
        </mxCell>
        <mxCell id="uvnTKlnBVqPeH02RUgd2-115" value="(T,E)" style="edgeLabel;html=1;align=center;verticalAlign=middle;resizable=0;points=[];" vertex="1" connectable="0" parent="uvnTKlnBVqPeH02RUgd2-51">
          <mxGeometry x="-0.1667" relative="1" as="geometry">
            <mxPoint x="20" y="11" as="offset" />
          </mxGeometry>
        </mxCell>
        <mxCell id="uvnTKlnBVqPeH02RUgd2-53" value="" style="endArrow=none;html=1;rounded=0;" edge="1" parent="1">
          <mxGeometry width="50" height="50" relative="1" as="geometry">
            <mxPoint x="150" y="300" as="sourcePoint" />
            <mxPoint x="150" y="250" as="targetPoint" />
          </mxGeometry>
        </mxCell>
        <mxCell id="uvnTKlnBVqPeH02RUgd2-54" value="" style="endArrow=none;html=1;rounded=0;" edge="1" parent="1">
          <mxGeometry width="50" height="50" relative="1" as="geometry">
            <mxPoint x="150" y="300" as="sourcePoint" />
            <mxPoint x="450" y="300" as="targetPoint" />
          </mxGeometry>
        </mxCell>
        <mxCell id="uvnTKlnBVqPeH02RUgd2-62" value="" style="endArrow=none;html=1;rounded=0;entryX=0.75;entryY=1;entryDx=0;entryDy=0;exitX=0;exitY=0;exitDx=0;exitDy=0;" edge="1" parent="1" source="uvnTKlnBVqPeH02RUgd2-64" target="uvnTKlnBVqPeH02RUgd2-20">
          <mxGeometry width="50" height="50" relative="1" as="geometry">
            <mxPoint x="520" y="470" as="sourcePoint" />
            <mxPoint x="540" y="440" as="targetPoint" />
          </mxGeometry>
        </mxCell>
        <mxCell id="uvnTKlnBVqPeH02RUgd2-63" value="Password" style="edgeLabel;html=1;align=center;verticalAlign=middle;resizable=0;points=[];" vertex="1" connectable="0" parent="uvnTKlnBVqPeH02RUgd2-62">
          <mxGeometry x="-0.6909" y="-2" relative="1" as="geometry">
            <mxPoint x="2" y="25" as="offset" />
          </mxGeometry>
        </mxCell>
        <mxCell id="uvnTKlnBVqPeH02RUgd2-64" value="" style="ellipse;whiteSpace=wrap;html=1;aspect=fixed;" vertex="1" parent="1">
          <mxGeometry x="510" y="440" width="10" height="10" as="geometry" />
        </mxCell>
        <mxCell id="uvnTKlnBVqPeH02RUgd2-73" value="" style="endArrow=none;html=1;rounded=0;entryX=0;entryY=0.75;entryDx=0;entryDy=0;exitX=1;exitY=0.5;exitDx=0;exitDy=0;" edge="1" parent="1" source="uvnTKlnBVqPeH02RUgd2-85" target="uvnTKlnBVqPeH02RUgd2-47">
          <mxGeometry width="50" height="50" relative="1" as="geometry">
            <mxPoint x="40" y="250" as="sourcePoint" />
            <mxPoint x="80" y="210" as="targetPoint" />
          </mxGeometry>
        </mxCell>
        <mxCell id="uvnTKlnBVqPeH02RUgd2-82" value="Cognome" style="edgeLabel;html=1;align=center;verticalAlign=middle;resizable=0;points=[];" vertex="1" connectable="0" parent="uvnTKlnBVqPeH02RUgd2-73">
          <mxGeometry x="0.1861" y="1" relative="1" as="geometry">
            <mxPoint x="-57" y="7" as="offset" />
          </mxGeometry>
        </mxCell>
        <mxCell id="uvnTKlnBVqPeH02RUgd2-77" value="" style="endArrow=none;html=1;rounded=0;" edge="1" parent="1">
          <mxGeometry width="50" height="50" relative="1" as="geometry">
            <mxPoint x="156" y="279.23" as="sourcePoint" />
            <mxPoint x="156" y="279.48" as="targetPoint" />
          </mxGeometry>
        </mxCell>
        <mxCell id="uvnTKlnBVqPeH02RUgd2-80" value="" style="ellipse;whiteSpace=wrap;html=1;aspect=fixed;" vertex="1" parent="1">
          <mxGeometry x="380" y="440" width="10" height="10" as="geometry" />
        </mxCell>
        <mxCell id="uvnTKlnBVqPeH02RUgd2-81" value="" style="ellipse;whiteSpace=wrap;html=1;aspect=fixed;" vertex="1" parent="1">
          <mxGeometry x="50" y="240" width="10" height="10" as="geometry" />
        </mxCell>
        <mxCell id="uvnTKlnBVqPeH02RUgd2-83" value="" style="endArrow=none;html=1;rounded=0;entryX=0;entryY=0.75;entryDx=0;entryDy=0;" edge="1" parent="1">
          <mxGeometry width="50" height="50" relative="1" as="geometry">
            <mxPoint x="60" y="220" as="sourcePoint" />
            <mxPoint x="90" y="220" as="targetPoint" />
          </mxGeometry>
        </mxCell>
        <mxCell id="uvnTKlnBVqPeH02RUgd2-87" value="Nome" style="edgeLabel;html=1;align=center;verticalAlign=middle;resizable=0;points=[];" vertex="1" connectable="0" parent="uvnTKlnBVqPeH02RUgd2-83">
          <mxGeometry x="-0.103" y="-1" relative="1" as="geometry">
            <mxPoint x="-44" y="-1" as="offset" />
          </mxGeometry>
        </mxCell>
        <mxCell id="uvnTKlnBVqPeH02RUgd2-85" value="" style="ellipse;whiteSpace=wrap;html=1;aspect=fixed;" vertex="1" parent="1">
          <mxGeometry x="50" y="240" width="10" height="10" as="geometry" />
        </mxCell>
        <mxCell id="uvnTKlnBVqPeH02RUgd2-86" value="" style="ellipse;whiteSpace=wrap;html=1;aspect=fixed;" vertex="1" parent="1">
          <mxGeometry x="50" y="215" width="10" height="10" as="geometry" />
        </mxCell>
        <mxCell id="uvnTKlnBVqPeH02RUgd2-88" value="" style="endArrow=none;html=1;rounded=0;entryX=0;entryY=0.25;entryDx=0;entryDy=0;exitX=1;exitY=0.5;exitDx=0;exitDy=0;" edge="1" parent="1" source="uvnTKlnBVqPeH02RUgd2-90" target="uvnTKlnBVqPeH02RUgd2-47">
          <mxGeometry width="50" height="50" relative="1" as="geometry">
            <mxPoint x="60" y="200" as="sourcePoint" />
            <mxPoint x="80" y="200" as="targetPoint" />
          </mxGeometry>
        </mxCell>
        <mxCell id="uvnTKlnBVqPeH02RUgd2-91" value="CF" style="edgeLabel;html=1;align=center;verticalAlign=middle;resizable=0;points=[];" vertex="1" connectable="0" parent="uvnTKlnBVqPeH02RUgd2-88">
          <mxGeometry x="-0.4026" relative="1" as="geometry">
            <mxPoint x="-28" y="-3" as="offset" />
          </mxGeometry>
        </mxCell>
        <mxCell id="uvnTKlnBVqPeH02RUgd2-90" value="" style="ellipse;whiteSpace=wrap;html=1;aspect=fixed;fillColor=#000000;" vertex="1" parent="1">
          <mxGeometry x="50" y="190" width="10" height="10" as="geometry" />
        </mxCell>
        <mxCell id="uvnTKlnBVqPeH02RUgd2-98" value="" style="ellipse;whiteSpace=wrap;html=1;aspect=fixed;" vertex="1" parent="1">
          <mxGeometry x="50" y="240" width="10" height="10" as="geometry" />
        </mxCell>
        <mxCell id="uvnTKlnBVqPeH02RUgd2-99" value="" style="ellipse;whiteSpace=wrap;html=1;aspect=fixed;" vertex="1" parent="1">
          <mxGeometry x="50" y="215" width="10" height="10" as="geometry" />
        </mxCell>
        <mxCell id="uvnTKlnBVqPeH02RUgd2-100" value="" style="ellipse;whiteSpace=wrap;html=1;aspect=fixed;fillColor=#000000;" vertex="1" parent="1">
          <mxGeometry x="50" y="190" width="10" height="10" as="geometry" />
        </mxCell>
        <mxCell id="uvnTKlnBVqPeH02RUgd2-113" value="" style="endArrow=none;html=1;rounded=0;" edge="1" parent="1">
          <mxGeometry width="50" height="50" relative="1" as="geometry">
            <mxPoint x="560" y="285" as="sourcePoint" />
            <mxPoint x="600" y="284.75" as="targetPoint" />
          </mxGeometry>
        </mxCell>
        <mxCell id="uvnTKlnBVqPeH02RUgd2-114" value="" style="ellipse;whiteSpace=wrap;html=1;aspect=fixed;fillColor=#000000;" vertex="1" parent="1">
          <mxGeometry x="600" y="280" width="10" height="10" as="geometry" />
        </mxCell>
        <mxCell id="uvnTKlnBVqPeH02RUgd2-116" value="GESTISCE" style="rhombus;whiteSpace=wrap;html=1;" vertex="1" parent="1">
          <mxGeometry x="540" y="-20" width="80" height="80" as="geometry" />
        </mxCell>
        <mxCell id="uvnTKlnBVqPeH02RUgd2-117" value="" style="endArrow=none;html=1;rounded=0;entryX=0.5;entryY=1;entryDx=0;entryDy=0;exitX=0.5;exitY=0;exitDx=0;exitDy=0;" edge="1" parent="1" source="uvnTKlnBVqPeH02RUgd2-48" target="uvnTKlnBVqPeH02RUgd2-116">
          <mxGeometry width="50" height="50" relative="1" as="geometry">
            <mxPoint x="610" y="200" as="sourcePoint" />
            <mxPoint x="660" y="150" as="targetPoint" />
          </mxGeometry>
        </mxCell>
        <mxCell id="uvnTKlnBVqPeH02RUgd2-118" value="NEGOZIO" style="rounded=0;whiteSpace=wrap;html=1;" vertex="1" parent="1">
          <mxGeometry x="520" y="-130" width="120" height="60" as="geometry" />
        </mxCell>
        <mxCell id="uvnTKlnBVqPeH02RUgd2-119" value="" style="endArrow=none;html=1;rounded=0;exitX=0.5;exitY=0;exitDx=0;exitDy=0;entryX=0.5;entryY=1;entryDx=0;entryDy=0;" edge="1" parent="1" source="uvnTKlnBVqPeH02RUgd2-116" target="uvnTKlnBVqPeH02RUgd2-118">
          <mxGeometry width="50" height="50" relative="1" as="geometry">
            <mxPoint x="579.77" y="60" as="sourcePoint" />
            <mxPoint x="580" y="-60" as="targetPoint" />
          </mxGeometry>
        </mxCell>
        <mxCell id="uvnTKlnBVqPeH02RUgd2-121" value="" style="endArrow=none;html=1;rounded=0;exitX=0.5;exitY=0;exitDx=0;exitDy=0;entryX=1;entryY=0.5;entryDx=0;entryDy=0;" edge="1" parent="1" target="uvnTKlnBVqPeH02RUgd2-136">
          <mxGeometry width="50" height="50" relative="1" as="geometry">
            <mxPoint x="120" y="190" as="sourcePoint" />
            <mxPoint x="120" y="140" as="targetPoint" />
            <Array as="points">
              <mxPoint x="120" y="140" />
            </Array>
          </mxGeometry>
        </mxCell>
        <mxCell id="uvnTKlnBVqPeH02RUgd2-123" value="FATTURA" style="rounded=0;whiteSpace=wrap;html=1;" vertex="1" parent="1">
          <mxGeometry x="-60" y="-10" width="120" height="60" as="geometry" />
        </mxCell>
        <mxCell id="uvnTKlnBVqPeH02RUgd2-135" value="" style="endArrow=none;html=1;rounded=0;" edge="1" parent="1">
          <mxGeometry width="50" height="50" relative="1" as="geometry">
            <mxPoint y="100" as="sourcePoint" />
            <mxPoint y="50" as="targetPoint" />
          </mxGeometry>
        </mxCell>
        <mxCell id="uvnTKlnBVqPeH02RUgd2-136" value="POSSIEDE" style="rhombus;whiteSpace=wrap;html=1;" vertex="1" parent="1">
          <mxGeometry x="-40" y="100" width="80" height="80" as="geometry" />
        </mxCell>
        <mxCell id="uvnTKlnBVqPeH02RUgd2-137" value="" style="endArrow=none;html=1;rounded=0;exitX=0.75;exitY=0;exitDx=0;exitDy=0;" edge="1" parent="1" source="uvnTKlnBVqPeH02RUgd2-47">
          <mxGeometry width="50" height="50" relative="1" as="geometry">
            <mxPoint x="190" y="165" as="sourcePoint" />
            <mxPoint x="260" y="140" as="targetPoint" />
            <Array as="points">
              <mxPoint x="180" y="140" />
            </Array>
          </mxGeometry>
        </mxCell>
        <mxCell id="uvnTKlnBVqPeH02RUgd2-139" value="POSSIEDE" style="rhombus;whiteSpace=wrap;html=1;" vertex="1" parent="1">
          <mxGeometry x="260" y="100" width="80" height="80" as="geometry" />
        </mxCell>
        <mxCell id="uvnTKlnBVqPeH02RUgd2-140" value="TESSERA" style="rounded=0;whiteSpace=wrap;html=1;" vertex="1" parent="1">
          <mxGeometry x="240" y="-10" width="120" height="60" as="geometry" />
        </mxCell>
        <mxCell id="uvnTKlnBVqPeH02RUgd2-141" value="" style="endArrow=none;html=1;rounded=0;" edge="1" parent="1">
          <mxGeometry width="50" height="50" relative="1" as="geometry">
            <mxPoint x="300" y="100" as="sourcePoint" />
            <mxPoint x="300" y="50" as="targetPoint" />
          </mxGeometry>
        </mxCell>
        <mxCell id="uvnTKlnBVqPeH02RUgd2-142" value="" style="endArrow=none;html=1;rounded=0;entryX=0.5;entryY=1;entryDx=0;entryDy=0;" edge="1" parent="1">
          <mxGeometry width="50" height="50" relative="1" as="geometry">
            <mxPoint x="450" y="300" as="sourcePoint" />
            <mxPoint x="579.79" y="250" as="targetPoint" />
            <Array as="points">
              <mxPoint x="580" y="300" />
            </Array>
          </mxGeometry>
        </mxCell>
        <mxCell id="uvnTKlnBVqPeH02RUgd2-143" value="RILASCIA" style="rhombus;whiteSpace=wrap;html=1;" vertex="1" parent="1">
          <mxGeometry x="260" y="-220" width="80" height="80" as="geometry" />
        </mxCell>
        <mxCell id="uvnTKlnBVqPeH02RUgd2-144" value="" style="endArrow=none;html=1;rounded=0;entryX=0.5;entryY=1;entryDx=0;entryDy=0;exitX=0.5;exitY=0;exitDx=0;exitDy=0;" edge="1" parent="1" source="uvnTKlnBVqPeH02RUgd2-140" target="uvnTKlnBVqPeH02RUgd2-143">
          <mxGeometry width="50" height="50" relative="1" as="geometry">
            <mxPoint x="190" y="-60" as="sourcePoint" />
            <mxPoint x="240" y="-110" as="targetPoint" />
          </mxGeometry>
        </mxCell>
        <mxCell id="uvnTKlnBVqPeH02RUgd2-148" value="" style="endArrow=none;html=1;rounded=0;entryX=0.25;entryY=0;entryDx=0;entryDy=0;exitX=1;exitY=0.5;exitDx=0;exitDy=0;" edge="1" parent="1" source="uvnTKlnBVqPeH02RUgd2-143" target="uvnTKlnBVqPeH02RUgd2-118">
          <mxGeometry width="50" height="50" relative="1" as="geometry">
            <mxPoint x="550" y="-180" as="sourcePoint" />
            <mxPoint x="470" y="-150" as="targetPoint" />
            <Array as="points">
              <mxPoint x="550" y="-180" />
            </Array>
          </mxGeometry>
        </mxCell>
        <mxCell id="uvnTKlnBVqPeH02RUgd2-149" value="" style="endArrow=none;html=1;rounded=0;entryX=0.75;entryY=0;entryDx=0;entryDy=0;exitX=1;exitY=0.5;exitDx=0;exitDy=0;" edge="1" parent="1" source="uvnTKlnBVqPeH02RUgd2-150" target="uvnTKlnBVqPeH02RUgd2-118">
          <mxGeometry width="50" height="50" relative="1" as="geometry">
            <mxPoint x="600" y="-210" as="sourcePoint" />
            <mxPoint x="610" y="-170" as="targetPoint" />
            <Array as="points">
              <mxPoint x="610" y="-310" />
            </Array>
          </mxGeometry>
        </mxCell>
        <mxCell id="uvnTKlnBVqPeH02RUgd2-150" value="EMETTE" style="rhombus;whiteSpace=wrap;html=1;" vertex="1" parent="1">
          <mxGeometry x="260" y="-350" width="80" height="80" as="geometry" />
        </mxCell>
        <mxCell id="uvnTKlnBVqPeH02RUgd2-151" value="" style="endArrow=none;html=1;rounded=0;exitX=0.75;exitY=0;exitDx=0;exitDy=0;entryX=0;entryY=0.5;entryDx=0;entryDy=0;" edge="1" parent="1" source="uvnTKlnBVqPeH02RUgd2-123" target="uvnTKlnBVqPeH02RUgd2-150">
          <mxGeometry width="50" height="50" relative="1" as="geometry">
            <mxPoint x="370" y="-120" as="sourcePoint" />
            <mxPoint y="-280" as="targetPoint" />
            <Array as="points">
              <mxPoint x="30" y="-310" />
            </Array>
          </mxGeometry>
        </mxCell>
        <mxCell id="uvnTKlnBVqPeH02RUgd2-153" value="VENDE" style="rhombus;whiteSpace=wrap;html=1;" vertex="1" parent="1">
          <mxGeometry x="780" y="-240" width="80" height="80" as="geometry" />
        </mxCell>
        <mxCell id="uvnTKlnBVqPeH02RUgd2-154" value="PRODOTTO" style="rounded=0;whiteSpace=wrap;html=1;" vertex="1" parent="1">
          <mxGeometry x="760" y="-460" width="120" height="60" as="geometry" />
        </mxCell>
        <mxCell id="uvnTKlnBVqPeH02RUgd2-156" value="" style="endArrow=none;html=1;rounded=0;entryX=0.5;entryY=0;entryDx=0;entryDy=0;exitX=0;exitY=0.5;exitDx=0;exitDy=0;" edge="1" parent="1">
          <mxGeometry width="50" height="50" relative="1" as="geometry">
            <mxPoint x="1020" y="-430.53000000000003" as="sourcePoint" />
            <mxPoint x="880" y="-430.53000000000003" as="targetPoint" />
            <Array as="points">
              <mxPoint x="890" y="-430.53000000000003" />
            </Array>
          </mxGeometry>
        </mxCell>
        <mxCell id="uvnTKlnBVqPeH02RUgd2-157" value="FORNISCE" style="rhombus;whiteSpace=wrap;html=1;" vertex="1" parent="1">
          <mxGeometry x="1020" y="-470" width="80" height="80" as="geometry" />
        </mxCell>
        <mxCell id="uvnTKlnBVqPeH02RUgd2-158" value="FORNITORE" style="rounded=0;whiteSpace=wrap;html=1;" vertex="1" parent="1">
          <mxGeometry x="1230" y="-460" width="120" height="60" as="geometry" />
        </mxCell>
        <mxCell id="uvnTKlnBVqPeH02RUgd2-159" value="" style="endArrow=none;html=1;rounded=0;exitX=0;exitY=0.5;exitDx=0;exitDy=0;" edge="1" parent="1">
          <mxGeometry width="50" height="50" relative="1" as="geometry">
            <mxPoint x="1230" y="-430" as="sourcePoint" />
            <mxPoint x="1100" y="-430" as="targetPoint" />
            <Array as="points">
              <mxPoint x="1100" y="-430" />
            </Array>
          </mxGeometry>
        </mxCell>
        <mxCell id="uvnTKlnBVqPeH02RUgd2-160" value="" style="endArrow=none;html=1;rounded=0;exitX=1;exitY=0.25;exitDx=0;exitDy=0;" edge="1" parent="1" source="uvnTKlnBVqPeH02RUgd2-118">
          <mxGeometry width="50" height="50" relative="1" as="geometry">
            <mxPoint x="760" as="sourcePoint" />
            <mxPoint x="820" y="-160" as="targetPoint" />
            <Array as="points">
              <mxPoint x="820" y="-115" />
            </Array>
          </mxGeometry>
        </mxCell>
        <mxCell id="uvnTKlnBVqPeH02RUgd2-161" value="" style="endArrow=none;html=1;rounded=0;entryX=0.5;entryY=0;entryDx=0;entryDy=0;exitX=0.5;exitY=1;exitDx=0;exitDy=0;" edge="1" parent="1" source="uvnTKlnBVqPeH02RUgd2-154" target="uvnTKlnBVqPeH02RUgd2-153">
          <mxGeometry width="50" height="50" relative="1" as="geometry">
            <mxPoint x="820" y="-290" as="sourcePoint" />
            <mxPoint x="610" y="-220" as="targetPoint" />
          </mxGeometry>
        </mxCell>
        <mxCell id="uvnTKlnBVqPeH02RUgd2-162" value="" style="endArrow=none;html=1;rounded=0;exitX=0.25;exitY=0;exitDx=0;exitDy=0;" edge="1" parent="1" source="uvnTKlnBVqPeH02RUgd2-123">
          <mxGeometry width="50" height="50" relative="1" as="geometry">
            <mxPoint x="220" y="-70" as="sourcePoint" />
            <mxPoint x="-30" y="-430" as="targetPoint" />
          </mxGeometry>
        </mxCell>
        <mxCell id="uvnTKlnBVqPeH02RUgd2-163" value="CONTIENE" style="rhombus;whiteSpace=wrap;html=1;" vertex="1" parent="1">
          <mxGeometry x="260" y="-470" width="80" height="80" as="geometry" />
        </mxCell>
        <mxCell id="uvnTKlnBVqPeH02RUgd2-164" value="" style="endArrow=none;html=1;rounded=0;entryX=1;entryY=0.5;entryDx=0;entryDy=0;exitX=0;exitY=0.5;exitDx=0;exitDy=0;" edge="1" parent="1" source="uvnTKlnBVqPeH02RUgd2-154" target="uvnTKlnBVqPeH02RUgd2-163">
          <mxGeometry width="50" height="50" relative="1" as="geometry">
            <mxPoint x="740" y="-400" as="sourcePoint" />
            <mxPoint x="350" y="-490" as="targetPoint" />
          </mxGeometry>
        </mxCell>
        <mxCell id="uvnTKlnBVqPeH02RUgd2-165" value="" style="endArrow=none;html=1;rounded=0;entryX=0;entryY=0.5;entryDx=0;entryDy=0;" edge="1" parent="1" target="uvnTKlnBVqPeH02RUgd2-163">
          <mxGeometry width="50" height="50" relative="1" as="geometry">
            <mxPoint x="-30" y="-430" as="sourcePoint" />
            <mxPoint x="350" y="-490" as="targetPoint" />
          </mxGeometry>
        </mxCell>
        <mxCell id="uvnTKlnBVqPeH02RUgd2-166" value="ESEGUE" style="rhombus;whiteSpace=wrap;html=1;" vertex="1" parent="1">
          <mxGeometry x="1250" y="-180" width="80" height="80" as="geometry" />
        </mxCell>
        <mxCell id="uvnTKlnBVqPeH02RUgd2-169" value="" style="endArrow=none;html=1;rounded=0;entryX=0.5;entryY=0;entryDx=0;entryDy=0;exitX=0.5;exitY=1;exitDx=0;exitDy=0;" edge="1" parent="1" source="uvnTKlnBVqPeH02RUgd2-158" target="uvnTKlnBVqPeH02RUgd2-166">
          <mxGeometry width="50" height="50" relative="1" as="geometry">
            <mxPoint x="1010" y="-140" as="sourcePoint" />
            <mxPoint x="1060" y="-190" as="targetPoint" />
          </mxGeometry>
        </mxCell>
        <mxCell id="uvnTKlnBVqPeH02RUgd2-171" value="ESEGUE" style="rhombus;whiteSpace=wrap;html=1;" vertex="1" parent="1">
          <mxGeometry x="780" y="-20" width="80" height="80" as="geometry" />
        </mxCell>
        <mxCell id="uvnTKlnBVqPeH02RUgd2-172" value="" style="endArrow=none;html=1;rounded=0;exitX=1;exitY=0.25;exitDx=0;exitDy=0;entryX=0.5;entryY=0;entryDx=0;entryDy=0;" edge="1" parent="1" target="uvnTKlnBVqPeH02RUgd2-171">
          <mxGeometry width="50" height="50" relative="1" as="geometry">
            <mxPoint x="640" y="-77.5" as="sourcePoint" />
            <mxPoint x="820" y="-30" as="targetPoint" />
            <Array as="points">
              <mxPoint x="820" y="-77.5" />
            </Array>
          </mxGeometry>
        </mxCell>
        <mxCell id="uvnTKlnBVqPeH02RUgd2-173" value="" style="endArrow=none;html=1;rounded=0;" edge="1" parent="1">
          <mxGeometry width="50" height="50" relative="1" as="geometry">
            <mxPoint x="820" y="110" as="sourcePoint" />
            <mxPoint x="820" y="60" as="targetPoint" />
          </mxGeometry>
        </mxCell>
        <mxCell id="uvnTKlnBVqPeH02RUgd2-174" value="ORDINE" style="rounded=0;whiteSpace=wrap;html=1;" vertex="1" parent="1">
          <mxGeometry x="760" y="110" width="120" height="60" as="geometry" />
        </mxCell>
        <mxCell id="uvnTKlnBVqPeH02RUgd2-175" value="" style="endArrow=none;html=1;rounded=0;entryX=0.5;entryY=1;entryDx=0;entryDy=0;exitX=1;exitY=0.5;exitDx=0;exitDy=0;" edge="1" parent="1" source="uvnTKlnBVqPeH02RUgd2-174" target="uvnTKlnBVqPeH02RUgd2-166">
          <mxGeometry width="50" height="50" relative="1" as="geometry">
            <mxPoint x="1050" y="-20" as="sourcePoint" />
            <mxPoint x="1100" y="-70" as="targetPoint" />
            <Array as="points">
              <mxPoint x="1290" y="140" />
            </Array>
          </mxGeometry>
        </mxCell>
        <mxCell id="uvnTKlnBVqPeH02RUgd2-176" value="Indirizzo" style="rounded=0;whiteSpace=wrap;html=1;" vertex="1" parent="1">
          <mxGeometry x="1230" y="-700" width="120" height="60" as="geometry" />
        </mxCell>
        <mxCell id="uvnTKlnBVqPeH02RUgd2-177" value="COLLOCATO" style="rhombus;whiteSpace=wrap;html=1;" vertex="1" parent="1">
          <mxGeometry x="1250" y="-590" width="80" height="80" as="geometry" />
        </mxCell>
        <mxCell id="uvnTKlnBVqPeH02RUgd2-178" value="" style="endArrow=none;html=1;rounded=0;exitX=0.5;exitY=0;exitDx=0;exitDy=0;" edge="1" parent="1" source="uvnTKlnBVqPeH02RUgd2-158">
          <mxGeometry width="50" height="50" relative="1" as="geometry">
            <mxPoint x="1130" y="-480" as="sourcePoint" />
            <mxPoint x="1290" y="-510" as="targetPoint" />
          </mxGeometry>
        </mxCell>
        <mxCell id="uvnTKlnBVqPeH02RUgd2-180" value="" style="endArrow=none;html=1;rounded=0;exitX=0.5;exitY=0;exitDx=0;exitDy=0;" edge="1" parent="1">
          <mxGeometry width="50" height="50" relative="1" as="geometry">
            <mxPoint x="1289.77" y="-590" as="sourcePoint" />
            <mxPoint x="1289.77" y="-640" as="targetPoint" />
          </mxGeometry>
        </mxCell>
      </root>
    </mxGraphModel>
  </diagram>
</mxfile>
